<svg width="32" height="33" viewBox="0 0 32 33" fill="#ffffff" xmlns="http://www.w3.org/2000/svg"><path d="M16 5.468c.744 0 1.428 0 2.06.005v21.99c-.632.005-1.316.005-2.06.005-4.668 0-7.002 0-8.603-1.202a6 6 0 0 1-1.195-1.195C5 23.47 5 21.136 5 16.468 5 11.8 5 9.466 6.202 7.866A6 6 0 0 1 7.397 6.67C8.998 5.468 11.332 5.468 16 5.468ZM24.602 26.266c-1.128.848-2.622 1.098-5.042 1.171V15.468H27v1c0 4.668 0 7.002-1.202 8.603-.34.453-.742.855-1.195 1.195ZM26.99 13.968h-7.43v-8.47c2.42.074 3.914.324 5.043 1.172a6 6 0 0 1 1.195 1.196c.965 1.285 1.155 3.043 1.193 6.102Z"></path></svg>