<svg width="32" height="33" viewBox="0 0 32 33" fill="currentColor" xmlns="http://www.w3.org/2000/svg"><g clip-path="url(#_3114310361__a)"><path fill-rule="evenodd" clip-rule="evenodd" d="M16 25.968c-2.368 0-4.021-.002-5.287-.141-1.24-.136-1.919-.388-2.415-.76a4.501 4.501 0 0 1-.897-.897c-.372-.496-.624-1.176-.76-2.414-.139-1.266-.141-2.92-.141-5.288 0-2.368.002-4.021.141-5.287.136-1.24.388-1.919.76-2.415a4.5 4.5 0 0 1 .897-.896c.496-.373 1.176-.625 2.415-.76 1.266-.14 2.919-.142 5.287-.142.732 0 1.395 0 2 .005v18.99c-.605.005-1.268.005-2 .005Zm3.5-.03c.677-.02 1.265-.054 1.788-.111 1.238-.136 1.918-.388 2.414-.76.34-.255.641-.557.897-.897.372-.496.624-1.176.76-2.414.139-1.266.141-2.92.141-5.288v-1h-6v10.47Zm5.99-11.97c-.013-1.118-.047-2.023-.131-2.787-.136-1.24-.388-1.919-.76-2.415a4.501 4.501 0 0 0-.897-.896c-.496-.373-1.176-.625-2.415-.76a22.782 22.782 0 0 0-1.787-.112v6.97h5.99ZM5 16.468C5 11.8 5 9.466 6.202 7.866A6 6 0 0 1 7.397 6.67C8.998 5.468 11.332 5.468 16 5.468c4.668 0 7.002 0 8.602 1.202a6 6 0 0 1 1.196 1.196C27 9.466 27 11.8 27 16.468s0 7.002-1.202 8.603c-.34.453-.742.855-1.195 1.195-1.601 1.202-3.935 1.202-8.603 1.202-4.668 0-7.002 0-8.603-1.202a6 6 0 0 1-1.195-1.195C5 23.47 5 21.136 5 16.468Z"></path></g><defs><clipPath id="_3114310361__a"><rect y=".468" width="32" height="32" rx="8" fill="#ffffff"></rect></clipPath></defs></svg>